<?xml version="1.0" encoding="UTF-8"?>
<!DOCTYPE svg PUBLIC "-//W3C//DTD SVG 1.1//EN" "http://www.w3.org/Graphics/SVG/1.1/DTD/svg11.dtd">
<!-- Creator: CorelDRAW 2018 (64-Bit) -->
<svg xmlns="http://www.w3.org/2000/svg" xml:space="preserve" width="1.5in" height="1.59987in" version="1.1" style="shape-rendering:geometricPrecision; text-rendering:geometricPrecision; image-rendering:optimizeQuality; fill-rule:evenodd; clip-rule:evenodd"
viewBox="0 0 25.65 27.36"
 xmlns:xlink="http://www.w3.org/1999/xlink">
 <defs>
  <style type="text/css">
   <![CDATA[
    .fil0 {fill:#4AFCC2}
   ]]>
  </style>
 </defs>
 <g id="Layer_x0020_1">
  <metadata id="CorelCorpID_0Corel-Layer"/>
  <path class="fil0" d="M10.89 27.27c-0.27,-0.01 -0.51,-0.26 -0.59,-0.51 -0.08,-0.23 -0.05,-0.85 -0.05,-1.13l-6.2 0c-0.46,0.51 -0.94,1.07 -1.96,0.79 -1.64,-0.46 -1.66,-2.82 0,-3.28 1.04,-0.29 1.51,0.3 1.96,0.78l3.97 0.01c-0.33,-0.26 -1.7,-0.77 -2.93,-1.9 -0.14,-0.13 -0.3,-0.23 -0.44,-0.37 -0.78,-0.8 -1.23,-1.24 -1.89,-2.22 -0.43,-0.64 -0.82,-1.3 -1.15,-2.1 -0.09,-0.21 -0.35,-1.05 -0.45,-1.15 -0.08,-0.08 -0.61,-0.24 -0.92,-0.74 -1.04,-1.71 1.21,-3.65 2.75,-2.01 0.62,0.66 0.48,1.8 -0.14,2.3 0.08,0.67 0.79,2.01 1.09,2.51 0.84,1.4 2.27,2.76 3.69,3.57 0.61,0.35 1.83,0.93 2.6,1.03 0.27,-0.4 0.32,-0.63 0.96,-0.64l3.21 -0c0.67,0.01 0.67,0.24 0.96,0.64 1.52,-0.22 3.59,-1.54 4.64,-2.58 0.59,-0.58 1.11,-1.19 1.63,-2.01 0.31,-0.48 1.04,-1.89 1.11,-2.54 -0.88,-0.63 -0.71,-2.61 0.87,-2.89 1.55,-0.28 2.84,1.66 1.36,3.01 -0.19,0.17 -0.35,0.18 -0.51,0.29 -0.25,0.2 -1.39,5.31 -6.89,7.75l3.99 0.03c0.29,-0.31 0.35,-0.49 0.76,-0.68 0.38,-0.18 0.76,-0.22 1.21,-0.1 1.64,0.45 1.65,2.82 -0,3.28 -0.44,0.12 -0.83,0.07 -1.2,-0.1 -0.47,-0.22 -0.66,-0.65 -0.81,-0.69l-6.14 0c0.01,0.25 0.03,0.87 -0.03,1.09 -0.08,0.28 -0.32,0.54 -0.6,0.55 -0.56,0.1 -0,0.09 -0.92,0.09l-2.71 -0.02c-0.2,-0.04 0.08,-0.01 -0.24,-0.07zm1.07 -2.33l0 -1.02 1.71 0 0 1.71 -1.71 -0 -0 -0.7z"/>
  <path class="fil0" d="M6.62 0.06c0.02,-0 0.04,0 0.05,-0.02l0.18 -0.04c0.1,-0 0.1,0.02 0.21,0.06 0.79,0.05 0.63,1.21 0.64,1.65l10.25 0c0,-0.71 -0.08,-1.59 0.63,-1.65 0.11,-0.04 0.12,-0.06 0.21,-0.05 0.01,0 0.03,0 0.04,0l0.19 0.06c0.47,-0 0.64,0.52 0.63,1.05 -0.02,1.25 0.32,2.3 -1.07,2.3l-8.4 0c-0.16,1.24 -0.72,2.4 -1.23,3.35 -0.66,1.22 -1.16,1.72 -1.89,2.7 0.12,0.26 0.43,0.66 0.6,0.92l1.84 2.76c0.12,0.18 2.26,3.45 2.46,3.65l-0.01 -4.14c-0.26,-0.21 -0.83,-0.39 -1.27,-1.07 -1.27,-1.99 0.6,-3.89 2.13,-3.9 1.21,-0 2.31,1.1 2.52,2.13 0.14,0.7 -0.11,1.36 -0.41,1.8 -0.46,0.69 -0.97,0.81 -1.26,1.04l0 4.13c0.23,-0.23 2.22,-3.29 2.46,-3.65l2.41 -3.64 -0.88 -1.17c-0.61,-0.85 -2.43,-3.26 -1.24,-3.88 0.54,-0.29 1.02,-0.01 1.27,0.6 0.18,0.44 0.45,0.93 0.68,1.3 0.44,0.71 0.95,1.41 1.49,2.03 0.08,0.1 0.16,0.15 0.24,0.24 0.41,0.43 0.57,0.76 0.16,1.39l-6.41 9.61c-0.25,0.38 -0.46,0.91 -1.09,0.88 -0.55,-0.03 -0.8,-0.57 -1.06,-0.97 -0.26,-0.41 -0.52,-0.79 -0.79,-1.19 -1.54,-2.3 -3.26,-4.97 -4.81,-7.21 -0.87,-1.27 -1.41,-1.72 -0.53,-2.56 1.07,-1.02 2.66,-3.66 2.88,-5.16 -1.01,-0 -2.38,0.27 -2.47,-0.8 -0.04,-0.48 -0.01,-1.11 -0.01,-1.6 -0,-0.49 0.23,-0.94 0.63,-0.94z"/>
  <path class="fil0" d="M12.52 11.06c-0.58,-0.15 -0.63,-0.71 -0.51,-1.15 0.12,-0.46 0.63,-0.61 1.16,-0.48 0.83,0.21 0.76,2 -0.65,1.63z"/>
 </g>
</svg>
