<?xml version="1.0" encoding="UTF-8"?>
<!DOCTYPE svg PUBLIC "-//W3C//DTD SVG 1.1//EN" "http://www.w3.org/Graphics/SVG/1.1/DTD/svg11.dtd">
<!-- Creator: CorelDRAW 2018 (64-Bit) -->
<svg xmlns="http://www.w3.org/2000/svg" xml:space="preserve" width="1.5in" height="2.6856in" version="1.1" style="shape-rendering:geometricPrecision; text-rendering:geometricPrecision; image-rendering:optimizeQuality; fill-rule:evenodd; clip-rule:evenodd"
viewBox="0 0 20.47 36.65"
 xmlns:xlink="http://www.w3.org/1999/xlink">
 <defs>
  <style type="text/css">
   <![CDATA[
    .fil0 {fill:#4AFCC2}
   ]]>
  </style>
 </defs>
 <g id="Layer_x0020_1">
  <metadata id="CorelCorpID_0Corel-Layer"/>
  <path class="fil0" d="M2.44 0.13c-2.66,0.64 -2.43,2.9 -2.44,4.7l-0 28.5c0,0.51 0.07,0.99 0.27,1.42 0.68,1.5 1.85,1.87 3.55,1.86 1.27,-0.01 13.31,0.13 14.2,-0.09 2.56,-0.63 2.47,-2.86 2.44,-4.71 -0.1,-7.01 0.03,-14.29 -0.01,-21.37 -0.01,-2.37 0.04,-4.75 0.01,-7.13 -0,-0.52 -0.12,-1.04 -0.32,-1.47 -0.69,-1.52 -1.92,-1.8 -3.59,-1.81 -2.36,-0.03 -4.76,-0.02 -7.12,-0.01 -1.19,0.01 -2.38,-0.01 -3.56,0 -0.98,0.01 -2.54,-0.1 -3.43,0.11zm7.46 33.63c-1.76,0.51 -0.97,2.89 0.63,2.48 0.6,-0.15 1.1,-0.81 0.89,-1.58 -0.15,-0.56 -0.75,-1.12 -1.53,-0.9zm-8.18 -28.71l0 27.28c5.24,0.08 11.73,0.07 17.01,0.01 -0.02,-9.28 0.07,-18.78 -0,-28.03 -1.36,-0.13 -10.94,-0.01 -13.24,-0.03l-3.77 0.02 -0 0.76z"/>
  <path class="fil0" d="M1.03 3.22c-0.51,0.15 -0.41,0.57 -0.41,1.16l-0 26.23c0,0.71 -0.26,2.58 0.32,2.8 0.16,0.06 18.2,0.11 18.52,0.01 0.64,-0.19 0.37,-1.96 0.37,-2.67l0 -24.71c-0.01,-0.7 0.26,-2.57 -0.32,-2.8 -0.15,-0.06 -18.09,-0.14 -18.48,-0.02zm0.69 1.84l0 27.28c5.24,0.08 11.73,0.07 17.01,0.01 -0.02,-9.28 0.07,-18.78 -0,-28.03 -1.36,-0.13 -10.94,-0.01 -13.24,-0.03l-3.77 0.02 -0 0.76z"/>
  <path class="fil0" d="M12.47 13.91c-0.39,0.2 -1.28,1.76 -1.58,2.23l-2.97 4.61c-0.15,0.22 -0.66,0.95 -0.73,1.17 -0.19,0.57 0.36,1.06 0.89,0.81 0.3,-0.14 1.28,-1.84 1.55,-2.24l2.97 -4.61c0.15,-0.23 0.66,-0.94 0.73,-1.17 0.19,-0.57 -0.37,-1.05 -0.86,-0.81z"/>
  <path class="fil0" d="M16.57 18.32c-0.4,0.7 -2.05,1.82 -2.09,2.35 -0.04,0.48 0.34,0.82 0.84,0.68 0.07,-0.02 2.86,-2.53 2.86,-3.03 -0,-0.41 -1.03,-1.29 -1.33,-1.59 -0.22,-0.21 -1.32,-1.39 -1.53,-1.44 -0.48,-0.13 -0.84,0.16 -0.85,0.61 -0,0.63 1.66,1.66 2.1,2.42z"/>
  <path class="fil0" d="M3.95 18.32c0.21,-0.37 1.1,-1.16 1.46,-1.52 0.18,-0.18 0.6,-0.5 0.63,-0.83 0.04,-0.49 -0.34,-0.82 -0.84,-0.68 -0.21,0.06 -1.87,1.79 -2.25,2.17 -0.8,0.8 -0.89,0.86 -0.04,1.69 0.39,0.38 2.06,2.14 2.28,2.2 0.48,0.13 0.84,-0.17 0.84,-0.61 0.01,-0.42 -0.43,-0.69 -0.64,-0.91 -0.33,-0.34 -1.27,-1.19 -1.46,-1.52z"/>
 </g>
</svg>
