<?xml version="1.0" encoding="UTF-8"?>
<!DOCTYPE svg PUBLIC "-//W3C//DTD SVG 1.1//EN" "http://www.w3.org/Graphics/SVG/1.1/DTD/svg11.dtd">
<!-- Creator: CorelDRAW 2018 (64-Bit) -->
<svg xmlns="http://www.w3.org/2000/svg" xml:space="preserve" width="1.5in" height="1.3701in" version="1.1" style="shape-rendering:geometricPrecision; text-rendering:geometricPrecision; image-rendering:optimizeQuality; fill-rule:evenodd; clip-rule:evenodd"
viewBox="0 0 27.85 25.44"
 xmlns:xlink="http://www.w3.org/1999/xlink">
 <defs>
  <style type="text/css">
   <![CDATA[
    .fil0 {fill:#4AFCC2}
   ]]>
  </style>
 </defs>
 <g id="Layer_x0020_1">
  <metadata id="CorelCorpID_0Corel-Layer"/>
  <g id="_2262910711696">
   <path class="fil0" d="M9.9 24.29c-0.31,0.13 -1.82,0.04 -2.29,0.05 -0.35,0 -0.74,-0.04 -0.84,0.31 -0.31,1.11 1.28,0.73 2.76,0.75l9.35 -0c0.5,-0 1.92,0.15 2.18,-0.2 0.84,-1.43 -2.69,-0.57 -3.1,-0.89 -0.13,-0.1 -0.06,-1.88 -0.07,-2.19 -0.01,-0.68 -0.18,-0.58 1.76,-0.56l4.5 -0.02c0.74,-0.01 2.29,0.12 2.92,-0.04 0.96,-0.24 0.76,-1.26 0.76,-2.26l-0 -15.05c0,-0.99 0.03,-2.02 0,-3 -0.03,-1.12 -0.77,-1.19 -1.83,-1.17 -8.04,0.1 -15.98,-0.08 -24.04,0 -0.64,0.01 -1.83,-0.15 -1.94,1.05 -0.08,0.84 -0.01,2.11 -0,3l0 15.05c0,1.01 -0.19,2.07 0.71,2.37 0.74,0.25 7.32,-0.03 8.91,0.06 0.48,0.03 0.31,0.13 0.31,1.22l0.01 1.14c-0,0.05 -0,0.13 -0.01,0.18 -0.08,0.45 0.09,-0.3 -0.03,0.1l-0.04 0.09zm-8.35 -4.21c0.78,0.11 2.22,0.04 3.07,0.04 1.04,-0 2.08,-0 3.12,-0l15.47 -0.01c0.84,0 2.35,0.09 3.12,-0.03 0.15,-0.65 0.04,-3.69 0.04,-4.61 -0,-1.85 0.09,-13.78 -0.08,-13.93 -0.14,-0.12 -18.45,-0.06 -21.6,-0.06 -0.79,-0 -2.41,-0.09 -3.1,0.03 -0.08,0.26 -0.14,17.95 -0.02,18.57z"/>
   <path class="fil0" d="M4.48 10.73c0.08,0.18 2.75,2.79 3.01,3.06 0.26,0.27 0.76,0.84 1.03,1.01l0.68 -0.68c0.2,-0.19 0.6,-0.6 0.69,-0.75 -0.07,-0.19 -2.17,-2.33 -2.47,-2.5 0.25,-0.5 2.5,-2.36 2.47,-2.65 -0.01,-0.1 -1.17,-1.27 -1.38,-1.36 -0.28,0.12 -3.13,3.18 -4.03,3.88z"/>
   <path class="fil0" d="M20.44 10.79c-0.22,0.36 -2.34,2.26 -2.41,2.45 -0.11,0.27 0.14,0.37 0.35,0.57 0.31,0.3 0.73,0.79 0.98,0.97 0.27,-0.18 0.72,-0.7 0.99,-0.97 0.52,-0.53 2.9,-2.82 2.99,-3.02 -0.15,-0.26 -3.8,-3.88 -3.97,-3.95 -0.23,0.11 -0.75,0.71 -0.98,0.93 -0.61,0.59 -0.6,0.38 1.09,2.02 0.26,0.25 0.81,0.68 0.98,1z"/>
   <path class="fil0" d="M11.14 13.54c0.2,0.17 1.39,0.93 1.62,0.96 0.19,-0.22 0.34,-0.52 0.5,-0.76 0.83,-1.29 1.64,-2.74 2.47,-4.06 0.2,-0.32 0.9,-1.37 0.97,-1.65 -0.09,-0.1 -1.34,-0.92 -1.6,-0.93 -0.06,0.06 -3.78,5.99 -3.96,6.44z"/>
  </g>
 </g>
</svg>
