<?xml version="1.0" encoding="UTF-8"?>
<!DOCTYPE svg PUBLIC "-//W3C//DTD SVG 1.1//EN" "http://www.w3.org/Graphics/SVG/1.1/DTD/svg11.dtd">
<!-- Creator: CorelDRAW 2018 (64-Bit) -->
<svg xmlns="http://www.w3.org/2000/svg" xml:space="preserve" width="1.5in" height="1.89204in" version="1.1" style="shape-rendering:geometricPrecision; text-rendering:geometricPrecision; image-rendering:optimizeQuality; fill-rule:evenodd; clip-rule:evenodd"
viewBox="0 0 17.28 21.8"
 xmlns:xlink="http://www.w3.org/1999/xlink">
 <defs>
  <style type="text/css">
   <![CDATA[
    .fil0 {fill:#4AFCC2}
   ]]>
  </style>
 </defs>
 <g id="Layer_x0020_1">
  <metadata id="CorelCorpID_0Corel-Layer"/>
  <path class="fil0" d="M12.69 16.97l-1.25 -0.01c0,0.79 0.22,1.64 -0.71,1.65l-8.47 -0c-1.23,0 -0.99,-0.26 -0.99,-2.62l-0 -12.06c0.01,-0.92 0.85,-0.71 1.68,-0.71l7.26 0c1.45,-0 1.12,0.18 1.25,1.15l1.23 -0.01c0.04,-0.52 0.01,-1.17 0.01,-1.71 0,-1.7 -0.95,-2.63 -2.65,-2.63 -2.34,0 -4.68,0 -7.02,0 -1,0 -1.86,0.01 -2.55,0.97 -0.61,0.83 -0.45,1.92 -0.45,3.08l0 14.08c0,1.32 -0.1,2.07 0.63,2.9 0.68,0.77 1.49,0.75 2.78,0.75 1.17,0 2.34,0 3.51,0 1.12,0 2.41,0.06 3.51,-0.01 1.05,-0.06 1.75,-0.71 2.06,-1.46 0.29,-0.71 0.18,-2.46 0.18,-3.34zm-4.49 -2.8c-0.46,1.22 -1.28,1.01 -1.14,1.54 0.34,0.15 0.92,0.08 1.31,-0.03 0.43,-0.12 0.71,-0.31 1.03,-0.51 0.26,0.07 0.69,0.44 1.83,0.64 3.5,0.61 6.61,-2.51 5.97,-6.09 -0.49,-2.7 -2.85,-4.47 -5.57,-4.29 -1.01,0.07 -2.33,0.61 -3.02,1.29 -0.32,0.32 -0.61,0.62 -0.86,0.99 -1.17,1.75 -1.19,3.92 -0.08,5.72 0.07,0.12 0.16,0.25 0.25,0.36l0.29 0.37zm3.28 -6.53c-0.15,0.08 -0.43,0.13 -0.6,0.2 -0.2,0.08 -0.39,0.22 -0.56,0.28 -0.06,-0.06 -0.32,-0.35 -0.42,-0.39 -0.28,-0.1 -0.42,0.13 -0.54,0.24 -0.54,0.52 -0.17,0.55 0.14,0.96 -0.04,0.16 -0.19,0.36 -0.27,0.53 -0.1,0.21 -0.13,0.44 -0.21,0.63 -0.74,0 -0.78,-0.07 -0.78,0.7 0,0.79 0.71,0.13 0.83,0.59 0.13,0.48 0.28,0.63 0.42,0.98 -0.32,0.4 -0.68,0.47 -0.13,0.99 0.38,0.36 0.49,0.36 0.96,-0.16 0.35,0.19 0.68,0.38 1.15,0.47 0.03,0.7 -0.08,0.79 0.69,0.79 0.55,0 0.42,-0.31 0.44,-0.79 0.5,-0.1 0.77,-0.27 1.14,-0.47 0.33,0.34 0.49,0.63 0.95,0.17 0.57,-0.56 0.2,-0.56 -0.11,-1 0.31,-0.68 0.16,-0.19 0.42,-0.99 0.07,-0.21 -0.01,-0.08 0.1,-0.16 0.6,0 0.75,0.07 0.72,-0.59 -0.03,-0.66 -0.17,-0.56 -0.81,-0.56 -0.15,-0.71 -0.32,-0.75 -0.47,-1.14 0.35,-0.35 0.66,-0.48 0.15,-0.96 -0.52,-0.5 -0.58,-0.21 -0.96,0.15 -0.39,-0.17 -0.59,-0.38 -1.14,-0.46 0,-0.73 0.08,-0.8 -0.68,-0.8 -0.59,0 -0.4,0.3 -0.46,0.79zm0.26 1.4c-2.18,0.48 -1.4,3.7 0.7,3.21 0.76,-0.18 1.47,-0.96 1.24,-1.97 -0.17,-0.77 -0.97,-1.46 -1.94,-1.25zm-6.83 10.6c-0.57,0.21 -0.61,1.14 0.36,1.14 0.41,0 2,0.05 2.28,-0.03 0.53,-0.15 0.7,-1.17 -0.38,-1.16 -0.42,0 -1.99,-0.05 -2.26,0.05z"/>
 </g>
</svg>
